<svg width="24" height="24" viewBox="0 0 24 24" fill="none" xmlns="http://www.w3.org/2000/svg">
<g clip-path="url(#clip0_4172_898)">
<path d="M23.9685 5.41695C23.8907 5.16617 23.6797 4.97961 23.421 4.93321L20.5733 4.42105L22.2471 2.74729C22.5217 2.4727 22.5217 2.02753 22.2471 1.75294C21.9725 1.47834 21.5273 1.47834 21.2527 1.75294L19.5789 3.4267L19.0668 0.579004C19.0204 0.320255 18.8338 0.109318 18.583 0.0315058C18.3318 -0.0463064 18.0585 0.0225996 17.8743 0.20963L14.4993 3.63149C14.3695 3.76274 14.2968 3.9404 14.2968 4.12508V7.31313C14.0502 7.12774 13.706 7.12273 13.4531 7.31257L11.3695 8.87524L15.1247 12.6305L16.6874 10.5469C16.8773 10.294 16.8719 9.94984 16.6868 9.70319H19.8749C20.0596 9.70319 20.2373 9.63053 20.3685 9.50069L23.7904 6.1257C23.9774 5.94148 24.0463 5.6682 23.9685 5.41695Z" fill="white"/>
<path d="M4.17187 16.1251C4.17187 16.8924 4.40657 17.606 4.80787 18.1978L0.205915 22.7998C-0.068679 23.0744 -0.068679 23.5195 0.205915 23.7941C0.343212 23.9314 0.523165 24.0001 0.703071 24.0001C0.882977 24.0001 1.06298 23.9315 1.20023 23.7941L5.80213 19.1922C6.39402 19.5935 7.10756 19.8282 7.8749 19.8282C8.97824 19.8282 10.0346 19.3264 10.7337 18.4782L5.52187 13.2663C4.67367 13.9654 4.17187 15.0217 4.17187 16.1251Z" fill="white"/>
<path d="M6.65524 12.4109L11.5891 17.3448L14.2725 13.7669L10.2331 9.72754L6.65524 12.4109Z" fill="white"/>
</g>
<defs>
<clipPath id="clip0_4172_898">
<rect width="24" height="24" fill="white"/>
</clipPath>
</defs>
</svg>
