<svg width="40" height="40" viewBox="0 0 40 40" fill="none" xmlns="http://www.w3.org/2000/svg">
<path d="M15.0437 12.6179C13.3625 13.0875 11.8148 13.7992 10.489 14.7281C10.3804 14.8039 10.2742 14.8804 10.1703 14.9585L12.3672 16.9984L15.0437 12.6179Z" fill="#FFFF5A"/>
<path d="M29.8297 14.9585C29.7258 14.8804 29.6196 14.8039 29.511 14.7281C28.1852 13.7992 26.6375 13.0875 24.9563 12.6179L27.6329 16.9984L29.8297 14.9585Z" fill="#FFFF5A"/>
<path d="M34.375 35.0781H5.625C4.97813 35.0781 4.45312 35.6031 4.45312 36.25V38.8281C4.45312 39.475 4.97813 40 5.625 40H34.375C35.0219 40 35.5469 39.475 35.5469 38.8281V36.25C35.5469 35.6031 35.0219 35.0781 34.375 35.0781Z" fill="#FFFF5A"/>
<path d="M3.67188 10.5469C5.6998 10.5469 7.34375 8.90292 7.34375 6.875C7.34375 4.84708 5.6998 3.20312 3.67188 3.20312C1.64395 3.20312 0 4.84708 0 6.875C0 8.90292 1.64395 10.5469 3.67188 10.5469Z" fill="#FFFF5A"/>
<path d="M36.3281 10.5469C38.356 10.5469 40 8.90292 40 6.875C40 4.84708 38.356 3.20312 36.3281 3.20312C34.3002 3.20312 32.6562 4.84708 32.6562 6.875C32.6562 8.90292 34.3002 10.5469 36.3281 10.5469Z" fill="#FFFF5A"/>
<path d="M20 7.34375C22.0279 7.34375 23.6719 5.6998 23.6719 3.67188C23.6719 1.64395 22.0279 0 20 0C17.9721 0 16.3281 1.64395 16.3281 3.67188C16.3281 5.6998 17.9721 7.34375 20 7.34375Z" fill="#FFFF5A"/>
<path d="M36.1835 13.3445C35.7414 13.1047 35.196 13.1742 34.8273 13.5164L27.1273 20.6664L21 10.6391C20.7867 10.2906 20.4085 10.0781 20 10.0781C19.5914 10.0781 19.2132 10.2906 19 10.6391L12.8726 20.6664L5.17261 13.5164C4.80386 13.1742 4.25854 13.1055 3.81636 13.3445C3.37495 13.5844 3.13432 14.0789 3.22026 14.5742L6.34526 32.6992C6.34761 32.7109 6.34917 32.7227 6.35229 32.7344H33.6476C33.6507 32.7227 33.6523 32.7109 33.6546 32.6992L36.7796 14.5742C36.8656 14.0789 36.625 13.5844 36.1835 13.3445ZM11.2515 29.2969C10.6043 29.2969 10.0792 28.7722 10.0792 28.125C10.0792 27.4778 10.6035 26.9531 11.2507 26.9531H11.2515C11.8988 26.9531 12.4234 27.4778 12.4234 28.125C12.4234 28.7722 11.8988 29.2969 11.2515 29.2969ZM20 29.2969C17.9753 29.2969 16.3281 27.3693 16.3281 25C16.3281 22.6307 17.9753 20.7031 20 20.7031C22.0246 20.7031 23.6718 22.6307 23.6718 25C23.6718 27.3693 22.0246 29.2969 20 29.2969ZM28.7515 29.2969C28.1043 29.2969 27.5793 28.7722 27.5793 28.125C27.5793 27.4778 28.1035 26.9531 28.7507 26.9531H28.7515C29.3988 26.9531 29.9234 27.4778 29.9234 28.125C29.9234 28.7722 29.3988 29.2969 28.7515 29.2969Z" fill="#FFFF5A"/>
<path d="M20 26.9531C20.7335 26.9531 21.3281 26.0787 21.3281 25C21.3281 23.9213 20.7335 23.0469 20 23.0469C19.2665 23.0469 18.6719 23.9213 18.6719 25C18.6719 26.0787 19.2665 26.9531 20 26.9531Z" fill="#FFFF5A"/>
</svg>
