<svg width="32" height="32" viewBox="0 0 32 32" fill="none" xmlns="http://www.w3.org/2000/svg">
<path d="M0 8C0 3.58172 3.58172 0 8 0H24C28.4183 0 32 3.58172 32 8V24C32 28.4183 28.4183 32 24 32H8C3.58172 32 0 28.4183 0 24V8Z" fill="#1EA510"/>
<path d="M0 8C0 3.58172 3.58172 0 8 0H24C28.4183 0 32 3.58172 32 8V24C32 28.4183 28.4183 32 24 32H8C3.58172 32 0 28.4183 0 24V8Z" fill="url(#paint0_radial_4172_2025)" fill-opacity="0.4"/>
<path d="M16.3887 9.1591L20.8391 13.5592C21.0536 13.7713 21.0536 14.1155 20.8391 14.3276L20.3199 14.8409C20.1056 15.0528 19.7584 15.053 19.5436 14.8418L16.0001 11.3545L12.4564 14.8415C12.2415 15.053 11.8944 15.0526 11.68 14.8406L11.1609 14.3274C10.9464 14.1152 10.9464 13.7711 11.1609 13.559L15.6115 9.1591C15.8261 8.94697 16.1741 8.94697 16.3887 9.1591Z" fill="white"/>
<path d="M16.3887 17.1591L20.8391 21.5592C21.0536 21.7713 21.0536 22.1155 20.8391 22.3276L20.3199 22.8409C20.1056 23.0528 19.7584 23.053 19.5436 22.8418L16.0001 19.3545L12.4564 22.8415C12.2415 23.053 11.8944 23.0526 11.68 22.8406L11.1609 22.3274C10.9464 22.1152 10.9464 21.7711 11.1609 21.559L15.6115 17.1591C15.8261 16.947 16.1741 16.947 16.3887 17.1591Z" fill="white"/>
<defs>
<radialGradient id="paint0_radial_4172_2025" cx="0" cy="0" r="1" gradientUnits="userSpaceOnUse" gradientTransform="translate(17.7273 4.5) rotate(90) scale(27.5 14.6914)">
<stop stop-color="white"/>
<stop offset="1" stop-color="white" stop-opacity="0.08"/>
</radialGradient>
</defs>
</svg>
